<svg xmlns="http://www.w3.org/2000/svg" xmlns:xlink="http://www.w3.org/1999/xlink" version="1.1" id="Ebene_1" x="0px" y="0px" viewBox="0 0 753.4 141.4" style="enable-background:new 0 0 753.4 141.4;" xml:space="preserve">
<style type="text/css">
	.st0{fill:#C31727;}
</style>
<g>
	<g>
		<polygon class="st0" points="250.1,24.7 241.6,56.4 218.8,56.4 227.4,24.7 193.3,24.7 168.6,116.4 202.7,116.4 211.5,83.4     234.3,83.4 225.4,116.4 259.5,116.4 284.2,24.7   "/>
		<path class="st0" d="M341.1,22.8c-31,0-53.7,16.7-62,47.5c-8.4,31.3,5.4,47.5,36.5,47.5c31,0,53.9-16.2,62.4-47.5    C386.2,39.4,372.1,22.8,341.1,22.8 M342.3,70.2c-2.8,9.9-7.3,25.4-20.8,25.4c-12.2,0-9.4-15.5-6.8-25.4    c2.3-8.5,7.9-25.3,20.5-25.3C348.1,44.9,344.5,61.7,342.3,70.2"/>
		<path class="st0" d="M451.4,73.1c13.6-3.2,24-10.2,27.8-24.3c4.7-17.6-6.5-24.5-27.8-24.5h-55.1l-24.7,91.7h34.1l9-32.2l2.1,5.7    l9.8,26.5h38.5l-21.2-41.6L451.4,73.1z M427,64.4h-8.9l5.3-19.6h9.4c6.9,0,13,1.1,10.8,9.5C441.1,63.7,434,64.4,427,64.4"/>
		<path class="st0" d="M534.9,44.9c9.7,0,18.2,1.8,25.1,4.6l6.3-23.5c-8.8-1.9-19-3.1-28.5-3.1c-20.2,0-46.9,4.5-53.7,29.7    c-9.6,35.7,40.1,24.5,36.8,36.8c-1.2,4.6-8.9,6.3-16.9,6.3c-10.2,0-20.8-2.1-28.9-6l-6.4,23.8c11.9,3,22.4,4.3,35.5,4.3    c19.7,0,44.9-6.2,51.5-30.8c9.5-35.4-40.2-24-37-36C520.3,45,529.6,44.9,534.9,44.9"/>
		<path class="st0" d="M599.3,69.4c4-15,17.1-23,31.6-23c5.7,0,11,1.6,16.1,3.4l6.5-24.2c-8.7-1.7-14-2.9-23.4-2.9    c-28.5,0-57.3,15.4-65.6,46.2c-8.8,32.7,10.5,48.8,40,48.8c8.7,0,18.6-1.9,25.4-3.7l6.5-24.3c-6.8,2.2-13.2,3.6-19.4,3.6    C603,93.2,595,85.2,599.3,69.4"/>
		<polygon class="st0" points="718.2,24.3 709.7,56 686.9,56 695.5,24.3 661.4,24.3 636.7,116.1 670.8,116.1 679.6,83.1 702.4,83.1     693.5,116.1 727.6,116.1 752.3,24.3   "/>
		<path class="st0" d="M69.9,1.4c-38,0-68.8,30.8-68.8,68.8c0,38,30.8,68.8,68.8,68.8c38,0,68.8-30.8,68.8-68.8    C138.7,32.2,107.9,1.4,69.9,1.4 M69.3,76.3l-23.1,0.1c-1.1,0-2.1,0.7-2.3,1.8l-5.6,20.7c-0.5,1.9-2.3,3.3-4.3,3.3l-4.9,0    c-2.2,0-3.8-2.1-3.3-4.3l5.8-21.5L35,64l6.2-23c0.4-1.6,1.9-2.8,3.6-2.8l6.2,0c1.8,0,3.2,1.7,2.7,3.5L48.2,62c-0.3,1,0.5,2,1.5,2    L72,63.9c1.8,0,3.2,1.7,2.7,3.5L73,73.5C72.5,75.2,71,76.3,69.3,76.3 M119.6,67.4l-1.6,6.1c-0.5,1.7-2,2.9-3.7,2.9L92,76.4    c-1.1,0-3,0.7-3.3,1.8l-5.6,20.7c-0.5,1.9-2.3,3.3-4.3,3.3l-4.9,0c-2.2,0-3.8-2.1-3.3-4.3l5.8-21.5L79.9,64l6.3-23    c0.4-1.6,1.9-2.8,3.6-2.8l6.2,0c1.8,0,3.2,1.7,2.7,3.5L93.2,62c-0.3,1,0.5,2,1.5,2l22.2-0.1C118.8,63.9,120.1,65.6,119.6,67.4"/>
	</g>
</g>
</svg>